<?xml version="1.0" encoding="utf-8"?>
<svg width="174" height="37" version="1.1" id="Layer_1" xmlns="http://www.w3.org/2000/svg" xmlns:xlink="http://www.w3.org/1999/xlink" x="0px" y="0px"
	 viewBox="0 0 174 37" style="enable-background:new 0 0 174 37;" xml:space="preserve">
<style type="text/css">
	.st0{clip-path:url(#SVGID_00000127744051453360381920000013297914895505085623_);}
	.st1{fill:#FFFFFF;filter:url(#Adobe_OpacityMaskFilter);}
	.st2{mask:url(#mask0_191_340_00000102503432172882124110000014152670812106614940_);}
	.st3{fill:#3772FF;}
	.st4{fill:#90DBFB;}
	.st5{fill:#FFFFFF;}
</style>
<g>
	<defs>
		<rect id="SVGID_1_" y="0" width="174" height="37"/>
	</defs>
	<clipPath id="SVGID_00000021831425122946038710000015525516925774879147_">
		<use xlink:href="#SVGID_1_"  style="overflow:visible;"/>
	</clipPath>
	<g style="clip-path:url(#SVGID_00000021831425122946038710000015525516925774879147_);">
		<defs>
			<filter id="Adobe_OpacityMaskFilter" filterUnits="userSpaceOnUse" x="1.6" y="3.1" width="34.8" height="30.8">
				<feColorMatrix  type="matrix" values="1 0 0 0 0  0 1 0 0 0  0 0 1 0 0  0 0 0 1 0"/>
			</filter>
		</defs>
		
			<mask maskUnits="userSpaceOnUse" x="1.6" y="3.1" width="34.8" height="30.8" id="mask0_191_340_00000102503432172882124110000014152670812106614940_">
			<path class="st1" d="M173.8,0H0v37h173.8V0z"/>
		</mask>
		<g class="st2">
			<path class="st3" d="M15,5.3c0.4-0.7,1-1.3,1.7-1.7c0.7-0.4,1.5-0.6,2.3-0.6c0.8,0,1.6,0.2,2.3,0.6c0.7,0.4,1.3,1,1.7,1.7
				l12.8,21.8c0.4,0.7,0.6,1.5,0.6,2.3c0,0.8-0.2,1.6-0.6,2.3c-0.4,0.7-1,1.3-1.7,1.7c-0.7,0.4-1.5,0.6-2.3,0.6H6.2
				c-0.8,0-1.6-0.2-2.3-0.6c-0.7-0.4-1.3-1-1.7-1.7s-0.6-1.5-0.6-2.3c0-0.8,0.2-1.6,0.6-2.3L15,5.3z"/>
			<path class="st4" d="M18.9,17.6c0.5,0.3,0.9,0.8,1.1,1.4c0.2,0.6,0.1,1.2-0.2,1.7l-7.2,13.2H6.9l8.8-15.4
				c0.1-0.3,0.3-0.5,0.6-0.7c0.2-0.2,0.5-0.3,0.8-0.4c0.3-0.1,0.6-0.1,0.9-0.1C18.3,17.4,18.6,17.5,18.9,17.6z"/>
			<path class="st5" d="M19.9,33.9l4.1-7.3c0.1-0.3,0.3-0.5,0.6-0.7c0.2-0.2,0.5-0.3,0.8-0.4c0.3-0.1,0.6-0.1,0.9-0.1
				c0.3,0,0.6,0.1,0.9,0.3c0.3,0.1,0.5,0.3,0.7,0.6c0.2,0.2,0.3,0.5,0.4,0.8c0.1,0.3,0.1,0.6,0.1,0.9c0,0.3-0.1,0.6-0.3,0.8
				l-2.9,5.1"/>
		</g>
		<g>
			<path class="st5" d="M64.5,21.9c-0.2-0.7-0.6-1.3-1.1-1.8c-0.5-0.5-1.1-1-1.8-1.5c-0.7-0.4-1.5-0.8-2.5-1.2
				c-0.5-0.2-0.9-0.4-1.3-0.6c-0.4-0.2-0.7-0.4-1-0.6s-0.5-0.5-0.7-0.7c-0.2-0.3-0.2-0.6-0.2-0.9c0-0.5,0.1-0.9,0.2-1.2
				c0.2-0.4,0.4-0.6,0.8-0.9c0.3-0.2,0.8-0.3,1.3-0.3c0.6,0,1,0.1,1.4,0.4s0.6,0.6,0.8,1c0.2,0.4,0.2,1,0.2,1.5h4.1
				c0-1.2-0.3-2.3-0.8-3.3c-0.5-1-1.3-1.7-2.3-2.3c-1-0.5-2.1-0.8-3.4-0.8c-1,0-1.8,0.1-2.6,0.4s-1.5,0.7-2.1,1.2
				c-0.6,0.5-1,1.1-1.3,1.8c-0.3,0.7-0.5,1.5-0.5,2.4c0,0.9,0.2,1.7,0.5,2.3c0.3,0.7,0.8,1.2,1.4,1.7s1.2,0.9,1.9,1.3
				c0.7,0.4,1.5,0.7,2.2,1c0.6,0.3,1.2,0.5,1.6,0.8c0.4,0.3,0.7,0.5,0.9,0.8c0.2,0.3,0.4,0.5,0.4,0.8c0.1,0.3,0.1,0.6,0.1,1
				c0,0.4-0.1,0.8-0.2,1.2c-0.1,0.4-0.4,0.6-0.7,0.8c-0.3,0.2-0.8,0.3-1.3,0.3c-0.5,0-0.9-0.1-1.3-0.2c-0.4-0.1-0.7-0.3-0.9-0.6
				s-0.4-0.6-0.6-1c-0.1-0.4-0.2-1-0.2-1.6h-4.1c0,1.2,0.2,2.2,0.6,3s0.9,1.6,1.5,2.1c0.6,0.6,1.4,1,2.2,1.2
				c0.8,0.3,1.8,0.4,2.7,0.4c1,0,1.9-0.1,2.7-0.4c0.8-0.3,1.5-0.7,2-1.2c0.6-0.5,1-1.1,1.3-1.8c0.3-0.7,0.4-1.5,0.4-2.3
				C64.8,23.4,64.7,22.6,64.5,21.9z"/>
			<path class="st5" d="M74.8,14.4v11c-0.1,0.3-0.3,0.6-0.5,0.8c-0.4,0.3-0.9,0.5-1.5,0.5c-0.2,0-0.4,0-0.6-0.1s-0.3-0.2-0.5-0.4
				c-0.1-0.2-0.2-0.4-0.3-0.7c-0.1-0.3-0.1-0.7-0.1-1.1v-9.9h-4v9.9c0,1,0.1,1.9,0.3,2.6c0.2,0.7,0.5,1.3,0.9,1.8
				c0.4,0.5,0.8,0.8,1.4,1c0.5,0.2,1.1,0.3,1.7,0.3c0.8,0,1.5-0.2,2.1-0.5c0.5-0.3,0.9-0.7,1.3-1.2l0.1,1.4h3.7V14.4H74.8z"/>
			<path class="st5" d="M93.3,18.3c-0.2-0.9-0.5-1.7-0.9-2.3s-0.9-1.1-1.5-1.4c-0.6-0.3-1.4-0.5-2.2-0.5c-0.7,0-1.4,0.2-2,0.5
				c-0.4,0.3-0.7,0.6-1,1V8h-4v21.7h3.7l0.1-1.5c0.3,0.5,0.7,1,1.2,1.3c0.6,0.4,1.2,0.5,2,0.5c0.8,0,1.6-0.2,2.2-0.5
				s1.1-0.8,1.5-1.4c0.4-0.6,0.7-1.4,0.9-2.3s0.3-2,0.3-3.2v-1C93.6,20.3,93.5,19.2,93.3,18.3z M89.7,22.5c0,0.7,0,1.4-0.1,1.9
				c-0.1,0.5-0.2,1-0.3,1.3c-0.2,0.3-0.4,0.6-0.6,0.7c-0.3,0.2-0.6,0.2-1.1,0.2c-0.6,0-1-0.1-1.4-0.4c-0.2-0.2-0.4-0.5-0.5-0.7v-6.9
				c0-0.1,0.1-0.2,0.1-0.3c0.2-0.3,0.4-0.5,0.7-0.7c0.3-0.2,0.6-0.2,1-0.2c0.5,0,0.8,0.1,1.1,0.3s0.5,0.4,0.6,0.8
				c0.2,0.3,0.3,0.8,0.3,1.3s0.1,1.1,0.1,1.8V22.5z"/>
			<path class="st5" d="M106.2,23.3c-0.3-0.6-0.8-1.1-1.5-1.5c-0.7-0.4-1.5-0.8-2.5-1.2c-0.5-0.2-0.9-0.4-1.2-0.5
				c-0.3-0.2-0.6-0.3-0.8-0.5s-0.3-0.3-0.4-0.5s-0.1-0.3-0.1-0.6c0-0.3,0.1-0.5,0.2-0.7c0.1-0.2,0.3-0.4,0.5-0.5s0.5-0.2,0.8-0.2
				c0.4,0,0.7,0.1,0.9,0.2s0.4,0.4,0.5,0.6c0.1,0.3,0.2,0.6,0.2,0.9h4c0-1-0.2-1.8-0.7-2.5s-1.1-1.3-1.9-1.7c-0.8-0.4-1.8-0.6-3-0.6
				c-0.8,0-1.6,0.1-2.2,0.4c-0.7,0.2-1.2,0.6-1.7,1c-0.5,0.4-0.8,0.9-1,1.5c-0.2,0.6-0.4,1.2-0.4,1.8c0,0.6,0.1,1.1,0.3,1.6
				c0.2,0.5,0.5,0.9,0.8,1.3s0.8,0.7,1.4,1c0.5,0.3,1.2,0.6,1.9,0.9c0.6,0.3,1.2,0.5,1.5,0.7c0.4,0.2,0.7,0.4,0.8,0.7
				c0.2,0.2,0.3,0.4,0.3,0.7c0,0.3-0.1,0.5-0.2,0.8c-0.1,0.2-0.3,0.4-0.5,0.5c-0.2,0.1-0.5,0.2-0.9,0.2c-0.4,0-0.7-0.1-1-0.2
				c-0.3-0.1-0.5-0.3-0.7-0.6s-0.3-0.7-0.3-1.2h-3.8c0,0.8,0.2,1.6,0.7,2.4c0.4,0.8,1.1,1.4,1.9,1.9c0.8,0.5,1.9,0.7,3.1,0.7
				c0.8,0,1.6-0.1,2.3-0.3c0.7-0.2,1.3-0.5,1.8-0.9c0.5-0.4,0.9-0.9,1.1-1.4c0.3-0.6,0.4-1.2,0.4-1.9
				C106.7,24.6,106.5,23.9,106.2,23.3z"/>
			<polygon class="st5" points="122.8,9.1 117.6,9.1 113.5,9.1 108.5,9.1 108.5,12.5 113.5,12.5 113.5,29.7 117.6,29.7 117.6,12.5 
				122.8,12.5 			"/>
			<path class="st5" d="M132,14.1c-0.2,0-0.4,0-0.6,0c-0.6,0-1.1,0.2-1.5,0.5c-0.4,0.3-0.8,0.8-1.1,1.4c0,0,0,0,0,0l-0.1-1.7h-3.7
				v15.3h4V19.6c0.1-0.3,0.2-0.5,0.3-0.7c0.2-0.3,0.5-0.5,0.8-0.6c0.3-0.1,0.7-0.2,1.1-0.2c0.2,0,0.4,0,0.7,0s0.5,0,0.6,0.1l0.1-4
				C132.4,14.2,132.2,14.2,132,14.1z"/>
			<path class="st5" d="M145.4,28.1c-0.1-0.5-0.1-1.2-0.1-2.1v-6.8c0-1.2-0.2-2.2-0.7-2.9s-1.1-1.3-1.9-1.6
				c-0.8-0.3-1.7-0.5-2.7-0.5c-0.9,0-1.6,0.1-2.3,0.4c-0.7,0.3-1.3,0.6-1.8,1.1c-0.5,0.4-0.9,1-1.1,1.6c-0.3,0.6-0.4,1.2-0.4,1.9h4
				c0-0.4,0.1-0.7,0.2-0.9s0.3-0.5,0.5-0.6s0.5-0.2,0.8-0.2c0.3,0,0.6,0.1,0.8,0.2c0.2,0.1,0.4,0.3,0.5,0.6s0.2,0.6,0.2,1.1v1.2
				h-1.1c-1,0-1.9,0.1-2.7,0.4c-0.8,0.2-1.4,0.6-1.9,1c-0.5,0.4-0.9,1-1.1,1.6c-0.3,0.6-0.4,1.3-0.4,2.1c0,0.9,0.2,1.7,0.6,2.4
				s0.9,1.2,1.6,1.6c0.7,0.4,1.4,0.6,2.3,0.6c0.6,0,1.1-0.1,1.5-0.3c0.4-0.2,0.8-0.5,1.1-0.8c0.1-0.1,0.2-0.3,0.3-0.4
				c0.1,0.5,0.2,0.9,0.3,1.2h4v-0.2C145.7,29.1,145.5,28.6,145.4,28.1z M141.3,25.9c-0.2,0.3-0.4,0.5-0.7,0.6
				c-0.3,0.2-0.7,0.3-1.1,0.3c-0.3,0-0.5-0.1-0.7-0.2c-0.2-0.1-0.4-0.3-0.5-0.6s-0.2-0.6-0.2-0.9c0-0.3,0-0.6,0.1-0.9
				c0.1-0.3,0.2-0.5,0.4-0.8c0.2-0.2,0.4-0.4,0.7-0.5c0.3-0.1,0.6-0.2,1-0.2h1V25.9z"/>
			<path class="st5" d="M155.3,25.7c-0.1,0.3-0.3,0.6-0.6,0.7c-0.3,0.2-0.6,0.2-1,0.2c-0.5,0-0.8-0.1-1.1-0.3
				c-0.3-0.2-0.5-0.4-0.6-0.8c-0.1-0.3-0.2-0.8-0.3-1.3c0-0.5-0.1-1.1-0.1-1.8v-1.1c0-0.7,0-1.2,0.1-1.7s0.1-0.9,0.3-1.3
				c0.1-0.3,0.3-0.6,0.6-0.8c0.3-0.2,0.6-0.3,1.1-0.3c0.4,0,0.8,0.1,1,0.3c0.3,0.2,0.5,0.5,0.6,0.9c0.1,0.4,0.2,0.9,0.2,1.5h3.7
				c0-1.3-0.2-2.4-0.7-3.3s-1.1-1.6-1.9-2c-0.8-0.5-1.8-0.7-2.9-0.7c-1,0-1.9,0.2-2.7,0.5s-1.4,0.8-1.9,1.4
				c-0.5,0.6-0.9,1.4-1.1,2.3s-0.4,2-0.4,3.1v1.1c0,1.2,0.1,2.2,0.4,3.1c0.2,0.9,0.6,1.7,1.1,2.3c0.5,0.6,1.1,1.1,1.9,1.4
				c0.8,0.3,1.7,0.5,2.7,0.5c1,0,1.9-0.2,2.8-0.7c0.8-0.4,1.5-1.1,2-1.9c0.5-0.8,0.7-1.8,0.7-3h-3.7
				C155.5,24.9,155.5,25.4,155.3,25.7z"/>
			<polygon class="st5" points="169.4,29.7 174,29.7 169.1,20.7 173.6,14.4 168.8,14.4 166,19 165.5,19.7 165.5,7.9 161.6,7.9 
				161.6,29.7 165.5,29.7 165.5,25 166.6,23.8 			"/>
		</g>
	</g>
</g>
</svg>
